User Type,Username,Date,Text
,litobispo,2012-10-20T14:04Z,thanks so much buddy.....;-D
[T],npto,2012-10-20T16:16Z,Please
,litobispo,2012-10-21T12:34Z,Official DR Value: DR13 for this one.....thanks a million again. Hope you won't get tired of my requests....:D
,litobispo,2012-10-21T14:36Z,"Hi bro, it's me again. I would like to make request once more.......do you have a copy of ""Alan Parsons Project - Eye In The Sky (1982) {Classic Records HDAD} 24-bit/192 kHz DVD-A & 24-bit/96kHz flac"" by Dr. Robert ? Would greatly appreciate it if you can share it with us...thanks again....."
,litobispo,2012-10-21T14:46Z,"I revisited your share/upload "" The Alan Parsons Project - Turn Of A Friendly Card""  by Dr. Robert...
my God, I was blown away by the dynamic range....awesome dude...thanks a lot man....I think any time soon the skull next to your nick would turn GREEN....:D"
[T],npto,2012-10-21T22:16Z,"It is not present
It, I think, not worse
http://thepiratebay.se/torrent/6564775/[24_96]_The_Alan_Parsons_Project_-_Eye_In_The_Sky_-_1982__Vinyl"
,litobispo,2012-10-22T01:35Z,"Ah yes, And this Japanese Pressing is very good. But I am looking for the DVD-A rip [Classic Record HDAD]. I hope you a copy...thanks again buddy.....:D"
,litobispo,2012-10-22T01:38Z,links at the other site are down.....
,litobispo,2012-10-22T10:59Z,"foobar2000 1.1.13 / Dynamic Range Meter 1.1.1
Analyzed: Scorpions / Love At First Sting
log date: 2012-10-21 11:32:11
DR         Peak         RMS     Duration Track
--------------------------------------------------------------------------------
DR15      -0.35 dB   -16.31 dB      3:55 01-Bad Boys Running Wild
DR14       0.00 dB   -16.99 dB      4:12 02-Rock You Like A Hurricane
DR14      -0.22 dB   -15.72 dB      4:16 03-I'm Leaving You
DR12      -1.84 dB   -17.30 dB      5:00 04-Coming Home
DR12      -2.32 dB   -15.56 dB      3:31 05-The Same Thrill
DR12      -1.41 dB   -15.46 dB      4:09 06-Big City Nights
DR14      -0.70 dB   -16.69 dB      5:03 07-As Soon As The Good Times Roll
DR11      -0.94 dB   -15.94 dB      4:36 08-Crossfire
DR11      -0.94 dB   -15.50 dB      6:27 09-Still Loving You
--------------------------------------------------------------------------------

Number of tracks:  9
Official DR value: DR13

Samplerate:        96000 Hz
Channels:          2
Bits per sample:   24
Bitrate:           3053 kbps
Codec:             FLAC"
,twisterjh,2012-11-02T08:29Z,thank you. hey do you have Pink Floyd's The Wall by any chance?
